HIERARCHY
ROOT Hips
{
	OFFSET 0.00000 0.00000 0.00000
	CHANNELS 6 Xposition Yposition Zposition Zrotation Yrotation Xrotation 
	JOINT LHipJoint
	{
		OFFSET 0 0 0
		CHANNELS 3 Zrotation Yrotation Xrotation
		JOINT LeftHip
		{
			OFFSET 1.28858 -1.83292 1.03970
			CHANNELS 3 Zrotation Yrotation Xrotation
			JOINT LeftKnee
			{
				OFFSET 2.47846 -6.80952 0.00000
				CHANNELS 3 Zrotation Yrotation Xrotation
				JOINT LeftAnkle
				{
					OFFSET 2.75274 -7.56311 0.00000
					CHANNELS 3 Zrotation Yrotation Xrotation
					JOINT LeftToe
					{
						OFFSET 0.12848 -0.35301 1.68223
						CHANNELS 3 Zrotation Yrotation Xrotation
						End Site
						{
							OFFSET 0.00000 -0.00000 0.87311
						}
					}
				}
			}
		}
	}
	JOINT RHipJoint
	{
		OFFSET 0 0 0
		CHANNELS 3 Zrotation Yrotation Xrotation
		JOINT RightHip
		{
			OFFSET -1.31183 -1.83292 1.03970
			CHANNELS 3 Zrotation Yrotation Xrotation
			JOINT RightKnee
			{
				OFFSET -2.44740 -6.72417 0.00000
				CHANNELS 3 Zrotation Yrotation Xrotation
				JOINT RightAnkle
				{
					OFFSET -2.67343 -7.34519 0.00000
					CHANNELS 3 Zrotation Yrotation Xrotation
					JOINT RightToe
					{
						OFFSET -0.16914 -0.46471 1.77626
						CHANNELS 3 Zrotation Yrotation Xrotation
						End Site
						{
							OFFSET -0.00000 -0.00000 0.92777
						}
					}
				}
			}
		}
	}
	JOINT lowerback
	{
		OFFSET 0 0 0
		CHANNELS 3 Zrotation Yrotation Xrotation
		JOINT Chest
		{
			OFFSET 0.01249 2.14252 0.03842
			CHANNELS 3 Zrotation Yrotation Xrotation
			JOINT Chest2
			{
				OFFSET -0.02957 2.14199 -0.03751
				CHANNELS 3 Zrotation Yrotation Xrotation
				JOINT lowerneck
				{
					OFFSET 0 0 0
					CHANNELS 3 Zrotation Yrotation Xrotation
					JOINT Neck
					{
						OFFSET -0.01678 1.65709 -0.05476
						CHANNELS 3 Zrotation Yrotation Xrotation
						JOINT Head
						{
							OFFSET 0.07912 1.58331 -0.11843
							CHANNELS 3 Zrotation Yrotation Xrotation
							End Site
							{
								OFFSET 0.03298 1.73940 -0.04271
							}
						}
					}
				}
				JOINT LeftCollar
				{
					OFFSET 0 0 0
					CHANNELS 3 Zrotation Yrotation Xrotation
					JOINT LeftShoulder
					{
						OFFSET 3.39556 1.16496 0.08673
CHANNELS 3 Zrotation Xrotation Yrotation
						JOINT LeftElbow
						{
OFFSET 0 -5.239100 -0.000000
CHANNELS 3 Zrotation Xrotation Yrotation
							JOINT LeftWrist
							{
OFFSET 0 -3.314670 0.000000
CHANNELS 3 Zrotation Xrotation Yrotation
								JOINT lhand
								{
									OFFSET 0 0 0
CHANNELS 3 Zrotation Xrotation Yrotation
									JOINT LFingers
									{
OFFSET 0 -0.965900 0.000000
CHANNELS 3 Zrotation Xrotation Yrotation
										End Site
										{
OFFSET 0 -0.778730 0.000000
										}
									}
								}
								JOINT LThumb
								{
OFFSET 0 0.000000 0.000000
CHANNELS 3 Zrotation Xrotation Yrotation
									End Site
									{
OFFSET 0 -0.790620 0.790620
									}
								}
							}
						}
					}
				}
				JOINT RightCollar
				{
					OFFSET 0 0 0
					CHANNELS 3 Zrotation Yrotation Xrotation
					JOINT RightShoulder
					{
						OFFSET -3.27193 1.31331 0.33940
CHANNELS 3 Zrotation Xrotation Yrotation
						JOINT RightElbow
						{
OFFSET 0 -5.302520 0.000000
CHANNELS 3 Zrotation Xrotation Yrotation
							JOINT RightWrist
							{
OFFSET 0 -3.678750 0.000000
CHANNELS 3 Zrotation Xrotation Yrotation
								JOINT rhand
								{
									OFFSET 0 0 0
CHANNELS 3 Zrotation Xrotation Yrotation
									JOINT RFingers
									{
OFFSET 0 -0.594810 0.000000
CHANNELS 3 Zrotation Xrotation Yrotation
										End Site
										{
OFFSET 0 -0.479550 0.000000
										}
									}
								}
								JOINT RThumb
								{
OFFSET 0 0.000000 0.000000
CHANNELS 3 Zrotation Xrotation Yrotation
									End Site
									{
OFFSET 0 -0.486870 0.486870
									}
								}
							}
						}
					}
				}
			}
		}
	}
}
MOTION
Frames: 12
Frame Time: 0.008333333333333333
10.107064 17.221217 -26.286774 -183.471114 25.036124 177.228331 0.000000 0.000000 0.000000 -25.259973 4.193173 -20.422180 3.845227 11.951168 35.559952 -1.567385 -21.615304 10.718034 10.321835 17.586867 60.558542 0.000000 0.000000 0.000000 8.296629 -3.709178 -7.185889 -16.746114 -19.743551 80.446899 179.358298 4.916522 -14.255193 -5.195077 13.598177 -41.654846 -6.298748 1.502490 4.308112 -3.128443 1.786877 0.224308 0.185545 1.008481 -2.272114 -2.281469 4.312868 2.581385 10.240282 5.865048 4.015656 3.665764 3.123858 0.420201 0.000000 0.000000 0.000000 33.870207 10.610979 -8.056763 11.340402 -18.802644 1.888425 11.449609 -8.791689 13.497590 0.000000 0.000000 0.000000 -7.125000 0.000000 0.000000 -10.978563 16.310324 -7.474132 0.000000 0.000000 0.000000 -11.610626 29.500016 -3.203834 -11.563680 -19.147102 -1.956783 -15.731782 8.729058 47.812312 0.000000 0.000000 0.000000 7.125000 0.000000 0.000000 46.212532 74.807955 -34.093154
10.112891 17.240552 -26.384223 -183.336341 25.169672 177.314992 0.000000 0.000000 0.000000 -25.207319 4.255420 -19.990040 3.808381 11.900905 35.382357 -1.577456 -21.664313 10.582903 10.329306 17.590901 60.583225 0.000000 0.000000 0.000000 8.943988 -2.766634 -7.736366 -16.644243 -19.727653 80.145498 179.390093 4.800665 -13.903080 -5.099630 13.494632 -41.250437 -6.102745 1.515369 4.266335 -3.091328 1.806331 0.148525 0.113736 1.015742 -2.323842 -2.258907 4.314003 2.522754 10.259646 5.858444 4.196569 3.673892 3.129775 0.488902 0.000000 0.000000 0.000000 33.807722 10.519536 -8.702388 11.702407 -19.355631 2.003475 9.151327 -8.155566 12.170271 0.000000 0.000000 0.000000 -7.125000 0.000000 0.000000 -12.554988 17.811773 -8.288896 0.000000 0.000000 0.000000 -11.472177 29.302847 -2.690501 -11.566339 -19.151107 -1.957650 -15.561747 9.300274 48.062135 0.000000 0.000000 0.000000 7.125000 0.000000 0.000000 47.124297 74.894766 -34.901762
10.116865 17.273500 -26.482068 -183.403925 25.207798 177.234628 0.000000 0.000000 0.000000 -25.411009 4.208680 -19.341311 3.734128 11.796111 35.016809 -1.530723 -21.335958 10.200050 10.311797 17.581445 60.525310 0.000000 0.000000 0.000000 9.269699 -2.004432 -8.128787 -16.472250 -19.697104 79.634772 179.384086 4.588373 -13.982638 -5.180968 13.582252 -41.593886 -6.120637 1.487481 4.271306 -3.051890 1.763472 0.113459 0.166356 0.994936 -2.362647 -2.239632 4.372436 2.467286 10.147367 5.919168 4.531386 3.640338 3.171222 0.606105 0.000000 0.000000 0.000000 33.570922 10.423424 -9.588742 12.109157 -19.961938 2.143826 8.728469 -8.672732 12.012077 0.000000 0.000000 0.000000 -7.125000 0.000000 0.000000 -12.841490 18.002519 -8.459551 0.000000 0.000000 0.000000 -11.434462 29.047293 -2.355460 -11.549702 -19.125881 -1.952216 -14.802578 9.623498 47.767545 0.000000 0.000000 0.000000 7.125000 0.000000 0.000000 46.984322 74.432889 -34.373848
10.120451 17.309300 -26.579995 -183.513895 25.225937 177.119279 0.000000 0.000000 0.000000 -25.668392 4.139112 -18.647215 3.652039 11.679896 34.611892 -1.472092 -20.928561 9.765310 10.289056 17.569163 60.450094 0.000000 0.000000 0.000000 9.528039 -1.280005 -8.488102 -16.285570 -19.663485 79.080201 179.370161 4.355882 -14.152614 -5.299335 13.709913 -42.093980 -6.183332 1.451054 4.286068 -3.011966 1.707560 0.086923 0.245038 0.968250 -2.398746 -2.221044 4.442871 2.412480 10.007514 5.993996 4.898441 3.598054 3.220111 0.733467 0.000000 0.000000 0.000000 33.297611 10.326334 -10.525518 12.525279 -20.579414 2.289476 8.698436 -9.431465 12.098768 0.000000 0.000000 0.000000 -7.125000 0.000000 0.000000 -12.857807 17.918727 -8.495291 0.000000 0.000000 0.000000 -11.417847 28.779510 -2.057765 -11.529023 -19.094534 -1.945462 -13.920010 9.894777 47.358923 0.000000 0.000000 0.000000 7.125000 0.000000 0.000000 46.624051 73.856085 -33.565987
10.124037 17.345100 -26.677922 -183.623865 25.244076 177.003930 0.000000 0.000000 0.000000 -25.925776 4.069544 -17.953120 3.569950 11.563680 34.206976 -1.413462 -20.521164 9.330570 10.266315 17.556881 60.374879 0.000000 0.000000 0.000000 9.786379 -0.555578 -8.847417 -16.098890 -19.629867 78.525629 179.356235 4.123391 -14.322589 -5.417702 13.837573 -42.594074 -6.246027 1.414626 4.300830 -2.972043 1.651649 0.060387 0.323720 0.941565 -2.434845 -2.202457 4.513306 2.357674 9.867661 6.068823 5.265496 3.555769 3.269000 0.860829 0.000000 0.000000 0.000000 33.024300 10.229244 -11.462295 12.941402 -21.196889 2.435127 8.668404 -10.190198 12.185459 0.000000 0.000000 0.000000 -7.125000 0.000000 0.000000 -12.874123 17.834935 -8.531031 0.000000 0.000000 0.000000 -11.401232 28.511727 -1.760069 -11.508344 -19.063187 -1.938709 -13.037441 10.166056 46.950301 0.000000 0.000000 0.000000 7.125000 0.000000 0.000000 46.263780 73.279280 -32.758127
10.127135 17.391079 -26.774887 -183.720626 25.202044 176.891022 0.000000 0.000000 0.000000 -26.168529 3.980651 -17.264322 3.488349 11.445167 33.797895 -1.327782 -19.894920 8.968306 10.247235 17.546537 60.311680 0.000000 0.000000 0.000000 10.022508 0.081499 -9.174040 -15.880710 -19.585968 77.874850 179.340371 4.179539 -14.498853 -5.505660 13.931208 -42.963274 -6.310200 1.354179 4.307825 -2.910511 1.564611 0.047476 0.428217 0.898469 -2.450858 -2.242691 4.590761 2.383758 9.760126 6.158582 5.536500 3.530627 3.319453 0.939505 0.000000 0.000000 0.000000 32.679776 10.149009 -12.471590 13.412973 -21.882317 2.609736 8.586857 -11.032720 12.326119 0.000000 0.000000 0.000000 -7.125000 0.000000 0.000000 -12.923001 17.700576 -8.604919 0.000000 0.000000 0.000000 -11.402291 28.251841 -1.055459 -11.603384 -19.206022 -1.970691 -12.544629 10.112215 46.735330 0.000000 0.000000 0.000000 7.125000 0.000000 0.000000 46.101610 72.965544 -32.345062
10.129705 17.448066 -26.870812 -183.803104 25.094942 176.780753 0.000000 0.000000 0.000000 -26.395462 3.870861 -16.581253 3.407276 11.324171 33.384313 -1.212851 -19.032014 8.684416 10.232114 17.538290 60.261476 0.000000 0.000000 0.000000 10.234618 0.624117 -9.465311 -15.628467 -19.530953 77.120032 179.322412 4.547819 -14.681917 -5.560735 13.988045 -43.190923 -6.375973 1.267757 4.306421 -2.825613 1.443913 0.049299 0.560629 0.837627 -2.445150 -2.346535 4.675808 2.497314 9.687540 6.264488 5.703637 3.524023 3.371599 0.965533 0.000000 0.000000 0.000000 32.258245 10.087001 -13.559306 13.944504 -22.641229 2.815661 8.449604 -11.965851 12.525141 0.000000 0.000000 0.000000 -7.125000 0.000000 0.000000 -13.007092 17.511535 -8.720058 0.000000 0.000000 0.000000 -11.422462 28.000494 0.089184 -11.823563 -19.537216 -2.044562 -12.473298 9.706790 46.729771 0.000000 0.000000 0.000000 7.125000 0.000000 0.000000 46.153667 72.936289 -32.358928
10.132275 17.505054 -26.966737 -183.885581 24.987841 176.670484 0.000000 0.000000 0.000000 -26.622394 3.761070 -15.898184 3.326203 11.203174 32.970730 -1.097921 -18.169109 8.400526 10.216993 17.530042 60.211272 0.000000 0.000000 0.000000 10.446729 1.166735 -9.756582 -15.376223 -19.475939 76.365214 179.304452 4.916098 -14.864981 -5.615810 14.044883 -43.418573 -6.441746 1.181335 4.305016 -2.740715 1.323215 0.051122 0.693041 0.776784 -2.439442 -2.450379 4.760856 2.610869 9.614954 6.370394 5.870773 3.517419 3.423746 0.991562 0.000000 0.000000 0.000000 31.836713 10.024994 -14.647023 14.476035 -23.400141 3.021585 8.312351 -12.898982 12.724163 0.000000 0.000000 0.000000 -7.125000 0.000000 0.000000 -13.091184 17.322494 -8.835198 0.000000 0.000000 0.000000 -11.442633 27.749147 1.233828 -12.043742 -19.868411 -2.118433 -12.401967 9.301366 46.724213 0.000000 0.000000 0.000000 7.125000 0.000000 0.000000 46.205723 72.907033 -32.372793
10.134825 17.564425 -27.062417 -183.949748 24.867670 176.570472 0.000000 0.000000 0.000000 -26.822855 3.662122 -15.243487 3.250194 11.089361 32.582129 -0.980382 -17.259385 8.161672 10.205126 17.523569 60.171859 0.000000 0.000000 0.000000 10.674281 1.695887 -10.045866 -15.117016 -19.417386 75.588178 179.291564 5.247329 -14.994596 -5.647425 14.077240 -43.548720 -6.491712 1.090525 4.290718 -2.650608 1.198719 0.059904 0.822549 0.713238 -2.418593 -2.550625 4.844921 2.741097 9.535388 6.476063 6.008464 3.506291 3.474345 1.005602 0.000000 0.000000 0.000000 31.401110 9.963655 -15.722615 15.023794 -24.175834 3.237635 8.219335 -13.798004 12.934035 0.000000 0.000000 0.000000 -7.125000 0.000000 0.000000 -13.144820 17.120492 -8.932063 0.000000 0.000000 0.000000 -11.459243 27.488580 2.368663 -12.275464 -20.215733 -2.197056 -12.192734 8.787565 46.666884 0.000000 0.000000 0.000000 7.125000 0.000000 0.000000 46.261366 72.796502 -32.313681
10.137245 17.639192 -27.156519 -183.895659 24.663090 176.536705 0.000000 0.000000 0.000000 -26.852349 3.633195 -14.772020 3.206894 11.021945 32.354868 -0.845997 -16.047295 8.213668 10.214270 17.528560 60.202130 0.000000 0.000000 0.000000 11.001561 2.138068 -10.322315 -14.812836 -19.335984 74.667658 179.311437 5.339279 -14.779019 -5.527534 13.951492 -43.049164 -6.439596 0.971381 4.193150 -2.526862 1.049691 0.113634 0.933296 0.632225 -2.299957 -2.627634 4.922647 2.978997 9.410746 6.580206 5.955989 3.465949 3.514956 0.942220 0.000000 0.000000 0.000000 30.874629 9.906638 -16.719905 15.676352 -25.059896 3.519074 8.412022 -14.476739 13.213980 0.000000 0.000000 0.000000 -7.125000 0.000000 0.000000 -13.001769 16.834779 -8.910906 0.000000 0.000000 0.000000 -11.452848 27.168472 3.440153 -12.581737 -20.667207 -2.306369 -11.092885 7.573831 46.275206 0.000000 0.000000 0.000000 7.125000 0.000000 0.000000 46.340167 72.161067 -31.783256
10.139666 17.713960 -27.250621 -183.841571 24.458510 176.502937 0.000000 0.000000 0.000000 -26.881844 3.604268 -14.300554 3.163593 10.954528 32.127607 -0.711613 -14.835205 8.265665 10.223415 17.533550 60.232402 0.000000 0.000000 0.000000 11.328841 2.580248 -10.598764 -14.508655 -19.254582 73.747138 179.331309 5.431229 -14.563442 -5.407643 13.825743 -42.549608 -6.387480 0.852237 4.095581 -2.403116 0.900664 0.167364 1.044043 0.551212 -2.181321 -2.704643 5.000373 3.216896 9.286103 6.684349 5.903515 3.425607 3.555567 0.878838 0.000000 0.000000 0.000000 30.348148 9.849621 -17.717195 16.328910 -25.943959 3.800514 8.604708 -15.155475 13.493925 0.000000 0.000000 0.000000 -7.125000 0.000000 0.000000 -12.858719 16.549067 -8.889749 0.000000 0.000000 0.000000 -11.446453 26.848364 4.511643 -12.888009 -21.118682 -2.415681 -9.993036 6.360098 45.883528 0.000000 0.000000 0.000000 7.125000 0.000000 0.000000 46.418969 71.525632 -31.252830
10.142086 17.788728 -27.344723 -183.787482 24.253930 176.469169 0.000000 0.000000 0.000000 -26.911339 3.575341 -13.829088 3.120292 10.887112 31.900345 -0.577229 -13.623115 8.317662 10.232559 17.538541 60.262674 0.000000 0.000000 0.000000 11.656122 3.022429 -10.875213 -14.204475 -19.173181 72.826618 179.351181 5.523180 -14.347865 -5.287752 13.699995 -42.050051 -6.335364 0.733093 3.998013 -2.279370 0.751637 0.221094 1.154789 0.470198 -2.062685 -2.781652 5.078099 3.454796 9.161460 6.788491 5.851040 3.385264 3.596179 0.815455 0.000000 0.000000 0.000000 29.821667 9.792604 -18.714485 16.981468 -26.828022 4.081953 8.797394 -15.834211 13.773870 0.000000 0.000000 0.000000 -7.125000 0.000000 0.000000 -12.715668 16.263354 -8.868591 0.000000 0.000000 0.000000 -11.440058 26.528256 5.583133 -13.194281 -21.570156 -2.524994 -8.893187 5.146364 45.491850 0.000000 0.000000 0.000000 7.125000 0.000000 0.000000 46.497771 70.890197 -30.722404
